<svg width="161" height="28" viewBox="0 0 161 28" fill="none" xmlns="http://www.w3.org/2000/svg">
<path d="M14.4681 27.9872C13.7538 28.0501 12.9071 27.8733 12.0866 27.6404C11.575 27.4951 11.0563 27.3288 10.591 27.0441C10.1353 26.7648 9.64366 26.5408 9.25659 26.167C8.81125 25.7363 8.35315 25.3176 7.90382 24.8914C6.88705 23.9259 5.85353 22.9762 4.8623 21.9882C3.84233 20.9718 2.75853 20.0108 1.81119 18.9307C0.9708 17.9719 0.451243 16.8709 0.174305 15.6597C-0.02442 14.7931 -0.0483627 13.9167 0.0777358 13.0516C0.323548 11.3685 1.05859 9.85921 2.29723 8.62856C4.52869 6.41144 6.83598 4.26173 9.15363 2.12476C10.6908 0.706101 12.5487 -0.051914 14.7179 0.00276496C16.2622 0.0417144 17.7307 0.412483 19.0276 1.23791C19.7451 1.69407 20.3221 2.30378 20.9175 2.88727C22.3956 4.33589 23.8649 5.79199 25.3357 7.24735C25.7452 7.65258 26.1466 8.06379 26.5536 8.47126C26.6853 8.60309 26.7962 8.74691 26.8904 8.90495C27.2799 9.56035 27.8473 10.1124 28.1889 10.788C28.4451 11.2951 28.6414 11.8396 28.7667 12.3954C28.9303 13.1212 29.0189 13.8545 28.9966 14.5998C28.9463 16.3038 28.4036 17.8401 27.2943 19.1988C26.5768 20.0782 25.7116 20.8257 24.8832 21.604C23.2886 23.1035 21.6956 24.6046 20.0627 26.0674C18.9813 27.0366 17.6437 27.5774 16.1864 27.8636C15.6716 27.9647 15.1521 27.9999 14.4673 27.9872H14.4681ZM22.0676 11.8659C21.8744 11.7902 21.7292 11.8621 21.5879 11.9093C20.4107 12.3018 19.3086 12.8448 18.2088 13.3939C16.8153 14.0897 15.5424 14.9638 14.2407 15.7915C13.1569 16.4814 12.0643 17.1555 10.8847 17.6828C9.9629 18.0948 9.00679 18.4446 8.00358 18.6648C7.17916 18.846 6.36031 19.052 5.50795 19.0722C5.1105 19.082 5.10491 19.0737 5.2366 18.7232C5.654 17.6101 6.18553 16.5473 6.77851 15.5069C7.98124 13.3961 9.44893 11.4591 11.1552 9.68843C12.3029 8.49673 13.5407 7.38293 14.919 6.41893C15.9207 5.71859 16.959 5.07443 18.0931 4.57707C18.6621 4.32765 19.2535 4.1314 19.86 3.97486C19.9263 3.95763 20.0252 4.00856 20.054 3.92692C20.0787 3.85576 19.9941 3.81082 19.9414 3.76588C19.6557 3.52319 19.3764 3.27302 19.0819 3.04007C18.37 2.47905 17.6254 1.97046 16.7124 1.72478C15.7539 1.46711 14.7842 1.30682 13.7858 1.44464C12.4378 1.6304 11.2726 2.18693 10.3109 3.08052C8.60215 4.66845 6.9102 6.27287 5.23022 7.88777C4.4425 8.64504 3.58136 9.33714 2.90059 10.191C1.67472 11.7288 1.20464 13.4343 1.5973 15.3309C1.79683 16.2934 2.24376 17.1547 2.92612 17.888C4.15279 19.2071 5.47363 20.4445 6.76335 21.7088C7.47126 22.4032 8.2039 23.0765 8.91181 23.7709C9.09218 23.9477 9.24781 24.0465 9.49841 23.8975C9.61653 23.8271 9.7546 23.7799 9.88947 23.7387C10.8296 23.4503 11.6788 22.9904 12.4729 22.4541C13.2343 21.9395 13.927 21.3395 14.6254 20.7486C17.0324 18.7127 19.1242 16.4282 20.8553 13.8575C21.2894 13.2134 21.6637 12.534 22.0692 11.8644L22.0676 11.8659ZM14.6852 26.6217C14.8728 26.6217 15.1114 26.6614 15.3293 26.6142C15.8975 26.4914 16.4705 26.4112 17.022 26.1843C17.512 25.9828 17.9765 25.7655 18.3995 25.4667C19.556 24.6495 20.5209 23.6391 21.5464 22.69C22.6964 21.6257 23.7811 20.4946 24.9758 19.4775C26.8785 17.8581 27.8002 15.9233 27.5145 13.498C27.4267 12.7505 27.1993 12.0606 26.833 11.4022C26.5983 10.982 26.4571 10.9093 25.9503 10.961C25.3804 11.0187 24.8122 11.0989 24.2416 11.1468C24.0157 11.1655 23.9 11.2584 23.821 11.4457C23.2671 12.7527 22.5368 13.9714 21.714 15.1451C20.7148 16.572 19.6214 17.933 18.4099 19.2041C17.3596 20.3059 16.2327 21.3403 15.0436 22.3133C13.9613 23.1994 12.8265 24.0128 11.5367 24.618C11.1776 24.7866 10.8017 24.9236 10.4314 25.0705C10.3619 25.0982 10.2781 25.1176 10.2702 25.1925C10.2622 25.2689 10.3603 25.2607 10.4098 25.2929C10.5447 25.382 10.6836 25.4667 10.8153 25.5596C11.5487 26.0779 12.3867 26.3985 13.2742 26.5513C13.7139 26.6269 14.1832 26.6659 14.6852 26.6209V26.6217ZM25.6095 9.54612C25.6223 9.46672 25.5648 9.44125 25.5281 9.4083C24.0827 8.08552 22.6637 6.73727 21.2599 5.37628C21.1761 5.29464 21.0915 5.25794 20.9726 5.26543C20.4642 5.29764 19.9901 5.46392 19.5145 5.61148C17.3939 6.26688 15.7235 7.57693 14.0938 8.93716C13.4051 9.51166 12.761 10.1304 12.1489 10.7805C10.3204 12.7242 8.67239 14.7781 7.60454 17.1959C7.58299 17.2446 7.54149 17.2948 7.57022 17.336C7.61491 17.3982 7.68594 17.3577 7.745 17.3412C8.14086 17.2304 8.55267 17.1712 8.93017 16.9982C9.40264 16.7817 9.89346 16.599 10.3619 16.3742C11.3348 15.9069 12.247 15.3421 13.1553 14.7751C13.6333 14.477 14.1058 14.1706 14.5743 13.8598C15.8776 12.9931 17.2439 12.2261 18.6701 11.5535C19.5847 11.1221 20.5209 10.7371 21.4937 10.4322C22.8369 10.0113 24.212 9.72663 25.6095 9.54762V9.54612Z" fill="white"/>
<path d="M39.0215 19C38.6113 19 38.4062 18.7803 38.4062 18.3408V7.05566C38.4062 6.61621 38.6113 6.39648 39.0215 6.39648H46.5625C47.002 6.39648 47.2217 6.58691 47.2217 6.96777V8.00488C47.2217 8.38574 47.002 8.57617 46.5625 8.57617H40.9727V11.3711H46.0967C46.5361 11.3711 46.7559 11.5615 46.7559 11.9424V12.9795C46.7559 13.3604 46.5361 13.5508 46.0967 13.5508H40.9727V16.8203H46.8438C47.2832 16.8203 47.5029 17.0107 47.5029 17.3916V18.4287C47.5029 18.8096 47.2832 19 46.8438 19H39.0215ZM51.1131 14.3857C51.1131 12.8916 51.4881 11.7197 52.2381 10.8701C52.9881 10.0205 54.1395 9.5957 55.6922 9.5957C56.6004 9.5957 57.3065 9.71582 57.8104 9.95605C58.3143 10.1963 58.7186 10.5479 59.0233 11.0107C59.2049 11.2861 59.1756 11.5029 58.9354 11.6611L58.0037 12.2764C57.7401 12.4521 57.5086 12.3848 57.3094 12.0742C57.2098 11.9219 57.0194 11.7578 56.7381 11.582C56.4569 11.4062 56.1082 11.3184 55.6922 11.3184C55.0301 11.3184 54.535 11.5527 54.2069 12.0215C53.8787 12.4844 53.7147 13.2725 53.7147 14.3857C53.7147 15.499 53.8787 16.29 54.2069 16.7588C54.535 17.2217 55.0301 17.4531 55.6922 17.4531C56.1668 17.4531 56.5506 17.3535 56.8436 17.1543C57.1366 16.9551 57.412 16.6973 57.6698 16.3809C57.8924 16.1113 58.1268 16.0732 58.3729 16.2666L59.1903 16.9082C59.4364 17.1016 59.451 17.3594 59.2342 17.6816C59.0057 18.0215 58.6161 18.3555 58.0653 18.6836C57.5204 19.0117 56.7293 19.1758 55.6922 19.1758C54.1395 19.1758 52.9881 18.751 52.2381 17.9014C51.4881 17.0518 51.1131 15.8799 51.1131 14.3857ZM62.818 14.3857C62.818 12.8916 63.2018 11.7197 63.9694 10.8701C64.7429 10.0205 65.8913 9.5957 67.4147 9.5957C68.9382 9.5957 70.0837 10.0205 70.8512 10.8701C71.6247 11.7197 72.0114 12.8916 72.0114 14.3857C72.0114 15.8799 71.6247 17.0518 70.8512 17.9014C70.0837 18.751 68.9382 19.1758 67.4147 19.1758C65.8913 19.1758 64.7429 18.751 63.9694 17.9014C63.2018 17.0518 62.818 15.8799 62.818 14.3857ZM65.4196 14.3857C65.4196 15.499 65.5895 16.29 65.9294 16.7588C66.2751 17.2217 66.7702 17.4531 67.4147 17.4531C68.0593 17.4531 68.5514 17.2217 68.8913 16.7588C69.237 16.29 69.4098 15.499 69.4098 14.3857C69.4098 13.2725 69.237 12.4844 68.8913 12.0215C68.5514 11.5527 68.0593 11.3184 67.4147 11.3184C66.7702 11.3184 66.2751 11.5527 65.9294 12.0215C65.5895 12.4844 65.4196 13.2725 65.4196 14.3857ZM76.5972 19C76.2456 19 76.0698 18.8242 76.0698 18.4727V10.2988C76.0698 9.94727 76.2456 9.77148 76.5972 9.77148H77.9859C78.3374 9.77148 78.5132 9.94727 78.5132 10.2988V10.8086H78.5484C78.7183 10.4336 79.0054 10.1377 79.4097 9.9209C79.814 9.7041 80.1919 9.5957 80.5435 9.5957C81.2466 9.5957 81.7915 9.75977 82.1782 10.0879C82.5708 10.416 82.8404 10.7822 82.9868 11.1865H83.022C83.5318 10.5244 83.9917 10.0938 84.4019 9.89453C84.8179 9.69531 85.3482 9.5957 85.9927 9.5957C86.8599 9.5957 87.5894 9.88281 88.1812 10.457C88.7788 11.0312 89.0777 12.0801 89.0777 13.6035V18.4727C89.0777 18.8242 88.9019 19 88.5503 19H87.1441C86.7925 19 86.6167 18.8242 86.6167 18.4727V14.2363C86.6167 12.959 86.5288 12.1533 86.353 11.8193C86.1831 11.4854 85.8784 11.3184 85.439 11.3184C85.0288 11.3184 84.6538 11.5586 84.314 12.0391C83.9741 12.5195 83.8042 13.5098 83.8042 15.0098V18.4727C83.8042 18.8242 83.6284 19 83.2769 19H81.8706C81.5191 19 81.3433 18.8242 81.3433 18.4727V14.2363C81.3433 12.959 81.2554 12.1533 81.0796 11.8193C80.9097 11.4854 80.605 11.3184 80.1655 11.3184C79.7554 11.3184 79.3804 11.5586 79.0405 12.0391C78.7007 12.5137 78.5308 13.5039 78.5308 15.0098V18.4727C78.5308 18.8242 78.355 19 78.0034 19H76.5972ZM94.4369 19C94.0267 19 93.8216 18.7803 93.8216 18.3408V7.05566C93.8216 6.61621 94.0267 6.39648 94.4369 6.39648H97.5043C100.2 6.39648 102.022 6.94141 102.971 8.03125C103.926 9.12109 104.404 10.6709 104.404 12.6807C104.404 14.6904 103.926 16.2461 102.971 17.3477C102.022 18.4492 100.2 19 97.5043 19H94.4369ZM96.388 16.8203H97.3373C99.1537 16.8203 100.328 16.4834 100.862 15.8096C101.395 15.1299 101.661 14.0869 101.661 12.6807C101.661 11.2744 101.395 10.2373 100.862 9.56934C100.328 8.89551 99.1537 8.55859 97.3373 8.55859H96.388V16.8203ZM108.023 14.3857C108.023 12.9033 108.392 11.7344 109.13 10.8789C109.874 10.0234 110.923 9.5957 112.277 9.5957C113.847 9.5957 115.013 10 115.775 10.8086C116.536 11.6172 116.917 12.918 116.917 14.7109C116.917 15.0625 116.753 15.2383 116.425 15.2383H110.624C110.718 16.2109 110.958 16.8232 111.345 17.0752C111.732 17.3271 112.18 17.4531 112.69 17.4531C113.176 17.4531 113.548 17.3887 113.806 17.2598C114.064 17.1309 114.28 16.9551 114.456 16.7324C114.655 16.4746 114.902 16.4336 115.195 16.6094L116.073 17.1455C116.419 17.3564 116.469 17.6084 116.223 17.9014C115.865 18.3291 115.446 18.6484 114.966 18.8594C114.486 19.0703 113.727 19.1758 112.69 19.1758C111.008 19.1758 109.81 18.748 109.095 17.8926C108.38 17.0371 108.023 15.8682 108.023 14.3857ZM110.633 13.4805H114.456C114.456 12.8477 114.298 12.332 113.982 11.9336C113.665 11.5293 113.161 11.3271 112.47 11.3271C111.919 11.3271 111.483 11.5205 111.16 11.9072C110.838 12.2881 110.662 12.8125 110.633 13.4805ZM120.809 18.3848C120.522 18.1797 120.442 17.96 120.571 17.7256L121.02 16.9082C121.178 16.6152 121.424 16.5801 121.758 16.8027C122.092 17.0254 122.484 17.1895 122.936 17.2949C123.393 17.4004 123.809 17.4531 124.184 17.4531C124.447 17.4531 124.693 17.4268 124.922 17.374C125.15 17.3213 125.344 17.2188 125.502 17.0664C125.66 16.9141 125.739 16.6914 125.739 16.3984C125.739 16.2227 125.692 16.0732 125.599 15.9502C125.505 15.8271 125.385 15.7334 125.238 15.6689C125.092 15.6045 124.937 15.5518 124.772 15.5107C124.556 15.458 124.242 15.3701 123.832 15.2471C123.428 15.124 123.038 14.9805 122.663 14.8164C122.353 14.6816 122.048 14.4941 121.749 14.2539C121.456 14.0078 121.239 13.7354 121.099 13.4365C120.964 13.1377 120.897 12.7686 120.897 12.3291C120.897 11.7373 121.066 11.2188 121.406 10.7734C121.752 10.3281 122.197 10.0205 122.742 9.85059C123.287 9.68066 123.967 9.5957 124.781 9.5957C125.332 9.5957 125.868 9.6748 126.39 9.83301C126.911 9.99121 127.283 10.1406 127.506 10.2812C127.857 10.5039 127.945 10.7412 127.77 10.9932L127.233 11.7754C127.069 12.0098 126.806 12.0273 126.442 11.8281C126.167 11.6758 125.895 11.5527 125.625 11.459C125.361 11.3652 125.065 11.3184 124.737 11.3184C124.515 11.3184 124.301 11.3418 124.096 11.3887C123.891 11.4355 123.715 11.5234 123.568 11.6523C123.428 11.7812 123.357 11.9512 123.357 12.1621C123.357 12.3848 123.422 12.5605 123.551 12.6895C123.686 12.8125 123.838 12.9033 124.008 12.9619C124.184 13.0205 124.351 13.0762 124.509 13.1289C124.837 13.2344 125.168 13.3369 125.502 13.4365C125.836 13.5303 126.176 13.6445 126.522 13.7793C126.82 13.8965 127.11 14.0635 127.392 14.2803C127.673 14.4971 127.878 14.7725 128.007 15.1064C128.136 15.4404 128.2 15.8213 128.2 16.249C128.2 16.8174 128.03 17.3447 127.69 17.8311C127.351 18.3174 126.902 18.6631 126.346 18.8682C125.789 19.0732 125.142 19.1758 124.403 19.1758C123.577 19.1758 122.874 19.1172 122.294 19C121.714 18.8828 121.219 18.6777 120.809 18.3848ZM132.522 19C132.171 19 131.995 18.8242 131.995 18.4727V10.2988C131.995 9.94727 132.171 9.77148 132.522 9.77148H133.929C134.28 9.77148 134.456 9.94727 134.456 10.2988V18.4727C134.456 18.8242 134.28 19 133.929 19H132.522ZM132.522 8.41797C132.171 8.41797 131.995 8.24219 131.995 7.89062V6.76562C131.995 6.41406 132.171 6.23828 132.522 6.23828H133.929C134.28 6.23828 134.456 6.41406 134.456 6.76562V7.89062C134.456 8.24219 134.28 8.41797 133.929 8.41797H132.522ZM138.514 14.3857C138.514 13.0967 138.793 11.9775 139.349 11.0283C139.912 10.0732 140.882 9.5957 142.259 9.5957C142.786 9.5957 143.237 9.67188 143.612 9.82422C143.987 9.97656 144.327 10.3047 144.632 10.8086H144.667L144.702 10.2988C144.725 9.94727 144.884 9.77148 145.176 9.77148H146.565C146.917 9.77148 147.092 9.94727 147.092 10.2988V18.9033C147.092 20.3389 146.706 21.3291 145.932 21.874C145.159 22.4189 144.04 22.6914 142.575 22.6914C141.954 22.6914 141.38 22.6592 140.852 22.5947C140.325 22.5303 139.792 22.3691 139.253 22.1113C138.971 21.9766 138.925 21.7217 139.112 21.3467L139.428 20.7139C139.557 20.4561 139.771 20.3975 140.07 20.5381C140.31 20.6494 140.606 20.749 140.958 20.8369C141.315 20.9248 141.766 20.9688 142.311 20.9688C143.061 20.9688 143.635 20.8281 144.034 20.5469C144.432 20.2715 144.632 19.665 144.632 18.7275V18.5781C144.632 18.3438 144.643 18.1094 144.667 17.875H144.632C144.327 18.3789 143.987 18.707 143.612 18.8594C143.237 19.0117 142.786 19.0879 142.259 19.0879C140.882 19.0879 139.912 18.6133 139.349 17.6641C138.793 16.709 138.514 15.6162 138.514 14.3857ZM141.116 14.3857C141.116 15.2646 141.236 15.9824 141.476 16.5391C141.722 17.0898 142.241 17.3652 143.032 17.3652C143.471 17.3652 143.846 17.1191 144.157 16.627C144.473 16.1289 144.632 15.4844 144.632 14.6934V13.9902C144.632 13.1992 144.473 12.5576 144.157 12.0654C143.846 11.5674 143.471 11.3184 143.032 11.3184C142.241 11.3184 141.722 11.5967 141.476 12.1533C141.236 12.7041 141.116 13.4482 141.116 14.3857ZM152.17 19C151.819 19 151.643 18.8242 151.643 18.4727V10.2988C151.643 9.94727 151.819 9.77148 152.17 9.77148H153.559C153.911 9.77148 154.086 9.94727 154.086 10.2988V10.8086H154.122C154.391 10.3457 154.734 10.0293 155.15 9.85938C155.566 9.68359 156.067 9.5957 156.653 9.5957C157.567 9.5957 158.323 9.88281 158.92 10.457C159.518 11.0312 159.817 12.0801 159.817 13.6035V18.4727C159.817 18.8242 159.641 19 159.29 19H157.883C157.532 19 157.356 18.8242 157.356 18.4727V14.2363C157.356 12.959 157.268 12.1533 157.092 11.8193C156.917 11.4854 156.539 11.3184 155.959 11.3184C155.343 11.3184 154.88 11.5586 154.57 12.0391C154.259 12.5137 154.104 13.5039 154.104 15.0098V18.4727C154.104 18.8242 153.928 19 153.577 19H152.17Z" fill="white"/>
</svg>
